<svg width="40" height="40" viewBox="0 0 40 40" fill="none" xmlns="http://www.w3.org/2000/svg">
    <path d="M20 35.625C17.6794 35.625 15.4538 34.7031 13.8128 33.0622C12.1719 31.4212 11.25 29.1956 11.25 26.875V10.9375C11.25 9.19702 11.9414 7.52782 13.1721 6.29711C14.4028 5.0664 16.072 4.375 17.8125 4.375C19.553 4.375 21.2222 5.0664 22.4529 6.29711C23.6836 7.52782 24.375 9.19702 24.375 10.9375V22.5C24.375 23.6603 23.9141 24.7731 23.0936 25.5936C22.2731 26.4141 21.1603 26.875 20 26.875C18.8397 26.875 17.7269 26.4141 16.9064 25.5936C16.0859 24.7731 15.625 23.6603 15.625 22.5V17.5C15.625 17.1685 15.7567 16.8505 15.9911 16.6161C16.2255 16.3817 16.5435 16.25 16.875 16.25C17.2065 16.25 17.5245 16.3817 17.7589 16.6161C17.9933 16.8505 18.125 17.1685 18.125 17.5V22.5C18.125 22.9973 18.3225 23.4742 18.6742 23.8258C19.0258 24.1775 19.5027 24.375 20 24.375C20.4973 24.375 20.9742 24.1775 21.3258 23.8258C21.6775 23.4742 21.875 22.9973 21.875 22.5V10.9375C21.875 9.86006 21.447 8.82675 20.6851 8.06488C19.9233 7.30301 18.8899 6.875 17.8125 6.875C16.7351 6.875 15.7017 7.30301 14.9399 8.06488C14.178 8.82675 13.75 9.86006 13.75 10.9375V26.875C13.75 28.5326 14.4085 30.1223 15.5806 31.2944C16.7527 32.4665 18.3424 33.125 20 33.125C21.6576 33.125 23.2473 32.4665 24.4194 31.2944C25.5915 30.1223 26.25 28.5326 26.25 26.875V13.125C26.25 12.7935 26.3817 12.4755 26.6161 12.2411C26.8505 12.0067 27.1685 11.875 27.5 11.875C27.8315 11.875 28.1495 12.0067 28.3839 12.2411C28.6183 12.4755 28.75 12.7935 28.75 13.125V26.875C28.75 29.1956 27.8281 31.4212 26.1872 33.0622C24.5462 34.7031 22.3206 35.625 20 35.625Z" fill="#939FB1"/>
</svg>
