<svg width="14" height="18" viewBox="0 0 14 18" fill="none" xmlns="http://www.w3.org/2000/svg">
    <path d="M13.0333 2.41663C11.8831 1.84079 10.6193 1.52769 9.33329 1.49996C8.4039 1.502 7.48094 1.65395 6.59995 1.94996C5.86799 2.19106 5.10383 2.32029 4.33329 2.33329C3.47225 2.31317 2.62327 2.12639 1.83329 1.78329V1.49996C1.83329 1.27895 1.74549 1.06698 1.58921 0.910704C1.43293 0.754423 1.22097 0.666626 0.999959 0.666626C0.778945 0.666626 0.566984 0.754423 0.410704 0.910704C0.254423 1.06698 0.166626 1.27895 0.166626 1.49996V16.5C0.166626 16.721 0.254423 16.9329 0.410704 17.0892C0.566984 17.2455 0.778945 17.3333 0.999959 17.3333C1.22097 17.3333 1.43293 17.2455 1.58921 17.0892C1.74549 16.9329 1.83329 16.721 1.83329 16.5V10.225C2.63837 10.5021 3.48198 10.6512 4.33329 10.6666H4.41662C5.31757 10.6509 6.21098 10.4992 7.06662 10.2166C7.79877 9.97627 8.56282 9.84706 9.33329 9.83329C10.3686 9.85771 11.3852 10.114 12.3083 10.5833C12.4386 10.6502 12.5842 10.6816 12.7305 10.6743C12.8768 10.667 13.0186 10.6212 13.1416 10.5416C13.2555 10.4627 13.348 10.3566 13.4105 10.2329C13.4731 10.1092 13.5038 9.97185 13.4999 9.83329V3.16663C13.5003 3.01044 13.4567 2.85732 13.3742 2.72471C13.2917 2.5921 13.1735 2.48535 13.0333 2.41663Z" fill="currentColor"/>
</svg>
