<svg width="28" height="22" viewBox="0 0 28 22" fill="none" xmlns="http://www.w3.org/2000/svg">
    <path fill-rule="evenodd" clip-rule="evenodd" d="M2.07141 0.285706C0.966842 0.285706 0.0714111 1.18113 0.0714111 2.2857V19.7143C0.0714111 20.8188 0.966843 21.7143 2.07141 21.7143H25.9286C27.0331 21.7143 27.9286 20.8188 27.9286 19.7143V2.28571C27.9286 1.18114 27.0331 0.285706 25.9286 0.285706H2.07141ZM3.33686 3.85111C3.73467 3.26293 4.53398 3.10861 5.12216 3.50642L14.0261 9.52861L22.9693 3.50503C23.5583 3.10835 24.3573 3.26422 24.754 3.85317C25.1506 4.44212 24.9948 5.24113 24.4058 5.6378L14.7429 12.1462C14.3079 12.4391 13.7387 12.4386 13.3043 12.1448L3.68155 5.63641C3.09336 5.2386 2.93904 4.43929 3.33686 3.85111Z" fill="currentColor"/>
</svg>
