<svg width="26" height="20" viewBox="0 0 26 20" fill="none" xmlns="http://www.w3.org/2000/svg">
    <path fill-rule="evenodd" clip-rule="evenodd" d="M13 4.5C13 6.98528 10.9853 9 8.5 9C6.01472 9 4 6.98528 4 4.5C4 2.01472 6.01472 0 8.5 0C10.9853 0 13 2.01472 13 4.5ZM22 5.5C22 7.433 20.433 9 18.5 9C16.567 9 15 7.433 15 5.5C15 3.567 16.567 2 18.5 2C20.433 2 22 3.567 22 5.5ZM1 20C0.447715 20 0 19.5523 0 19V18C0 14.6863 2.68629 12 6 12H11C14.3137 12 17 14.6863 17 18V19C17 19.5523 16.5523 20 16 20H1ZM25.0588 20H18.8286C18.9396 19.6871 19 19.3505 19 19V18C19 15.6132 17.9492 13.4671 16.2859 12H20.3529C23.4717 12 26 14.6863 26 18V19C26 19.5523 25.5786 20 25.0588 20Z" fill="currentColor"/>
</svg>
